<?xml version="1.0" standalone="no"?>
<!DOCTYPE svg PUBLIC "-//W3C//DTD SVG 20010904//EN"
 "http://www.w3.org/TR/2001/REC-SVG-20010904/DTD/svg10.dtd">
<svg version="1.0" xmlns="http://www.w3.org/2000/svg"
 width="700.000000pt" height="700.000000pt" viewBox="0 0 700.000000 700.000000"
 preserveAspectRatio="xMidYMid meet">
<metadata>
Created by potrace 1.14, written by Peter Selinger 2001-2017
</metadata>
<g transform="translate(0.000000,700.000000) scale(0.100000,-0.100000)"
fill="#000000" stroke="none">
<path d="M1415 6318 c-374 -375 -685 -688 -691 -697 -11 -15 228 -16 2777 -16
1534 0 2789 2 2789 3 0 2 -312 316 -694 698 l-694 694 -1403 -1 -1404 0 -680
-681z"/>
<path d="M699 5228 c-1 -29 -1 -1011 0 -1019 1 -10 1392 -1399 1400 -1399 8 0
3 2421 -5 2429 -2 2 -317 6 -699 8 l-695 4 -1 -23z"/>
<path d="M2449 4181 c0 -9 -1 -322 -2 -697 l-2 -681 1923 0 c1057 0 1922 1
1922 3 0 1 -312 315 -694 697 l-695 694 -1225 0 c-1111 0 -1226 -2 -1227 -16z"/>
<path d="M4898 2437 c-4 -12 -3 -1957 2 -2259 1 -82 5 -150 10 -153 4 -2 320
307 701 688 l694 692 -2 505 c-1 278 -2 512 -2 521 -1 14 -70 16 -700 17 -533
1 -700 -2 -703 -11z"/>
<path d="M715 1391 c-3 -2 308 -316 689 -697 l694 -694 1226 0 1226 0 0 38 c1
20 2 333 3 695 2 578 0 657 -13 658 -45 3 -3822 3 -3825 0z"/>
</g>
</svg>
